<svg width="1440" height="450" viewBox="0 0 1440 450" fill="none" xmlns="http://www.w3.org/2000/svg">
<g clip-path="url(#clip0_1545_2998)">
<path d="M671.875 213.969L763.614 133.969L673.003 136.684L671.875 213.969Z" fill="#153BC0" stroke="#153BC0" stroke-linejoin="round"/>
<path d="M671.875 213.969L824.71 241.854L763.614 133.969L671.875 213.969Z" fill="#163CC3" stroke="#163CC4" stroke-linejoin="round"/>
<path d="M763.614 133.969L634.653 70.3655L673.003 136.684L763.614 133.969Z" fill="#1439BC" stroke="#1439BC" stroke-linejoin="round"/>
<path d="M673.003 136.684L522.611 127.389L671.875 213.969L673.003 136.684Z" fill="#1539BC" stroke="#1539BC" stroke-linejoin="round"/>
<path d="M634.653 70.3655L522.611 127.389L673.003 136.684L634.653 70.3655Z" fill="#1438B6" stroke="#1438B6" stroke-linejoin="round"/>
<path d="M522.611 127.389L510.016 216.684L671.875 213.969L522.611 127.389Z" fill="#153ABF" stroke="#153ABF" stroke-linejoin="round"/>
<path d="M671.875 213.969L770.569 318.512L824.71 241.854L671.875 213.969Z" fill="#163EC9" stroke="#163EC9" stroke-linejoin="round"/>
<path d="M824.71 241.854L941.452 142.115L763.614 133.969L824.71 241.854Z" fill="#163DC7" stroke="#163DC7" stroke-linejoin="round"/>
<path d="M763.614 133.969L783.352 50.4177L634.653 70.3655L763.614 133.969Z" fill="#1539BB" stroke="#1539BB" stroke-linejoin="round"/>
<path d="M824.71 241.854L943.896 213.969L941.452 142.115L824.71 241.854Z" fill="#173FCF" stroke="#173FCF" stroke-linejoin="round"/>
<path d="M941.452 142.115L783.352 50.4177L763.614 133.969L941.452 142.115Z" fill="#153BC0" stroke="#153BC0" stroke-linejoin="round"/>
<path d="M651.384 320.705L770.569 318.512L671.875 213.969L651.384 320.705Z" fill="#173ECA" stroke="#173ECA" stroke-linejoin="round"/>
<path d="M824.71 241.854L908.741 300.026L943.896 213.969L824.71 241.854Z" fill="#1740D0" stroke="#1740D0" stroke-linejoin="round"/>
<path d="M537.65 297.728L651.384 320.705L671.875 213.969L537.65 297.728Z" fill="#163DC8" stroke="#163DC8" stroke-linejoin="round"/>
<path d="M506.068 -10.47L500.804 79.4517L634.653 70.3655L506.068 -10.47Z" fill="#1335AC" stroke="#1335AC" stroke-linejoin="round"/>
<path d="M634.653 70.3655L500.804 79.4517L522.611 127.389L634.653 70.3655Z" fill="#1336B1" stroke="#1336B1" stroke-linejoin="round"/>
<path d="M371.091 146.919L375.227 215.222L510.016 216.684L371.091 146.919Z" fill="#1437B5" stroke="#1437B5" stroke-linejoin="round"/>
<path d="M510.016 216.684L537.65 297.729L671.875 213.969L510.016 216.684Z" fill="#153CC5" stroke="#153CC5" stroke-linejoin="round"/>
<path d="M770.569 318.512L908.742 300.026L824.71 241.854L770.569 318.512Z" fill="#1740D1" stroke="#1740D1" stroke-linejoin="round"/>
<path d="M783.352 50.4177L670.559 7.91119L634.653 70.3655L783.352 50.4177Z" fill="#1438B5" stroke="#1438B5" stroke-linejoin="round"/>
<path d="M1062.14 65.0391L955.551 59.8172L941.452 142.115L1062.14 65.0391Z" fill="#163DC6" stroke="#163DC6" stroke-linejoin="round"/>
<path d="M941.452 142.115L955.551 59.8172L783.353 50.4177L941.452 142.115Z" fill="#153BC2" stroke="#153BC2" stroke-linejoin="round"/>
<path d="M783.352 50.4177L778.653 -14.9609L670.559 7.91121L783.352 50.4177Z" fill="#1336B3" stroke="#1336B3" stroke-linejoin="round"/>
<path d="M1080.75 285.927L1059.13 221.906L943.896 213.969L1080.75 285.927Z" fill="#1740D1" stroke="#1740D1" stroke-linejoin="round"/>
<path d="M943.896 213.969L1059.13 221.906L941.452 142.115L943.896 213.969Z" fill="#163ECB" stroke="#163ECB" stroke-linejoin="round"/>
<path d="M954.235 -10.5744L778.653 -14.9609L783.352 50.4177L954.235 -10.5744Z" fill="#1438B7" stroke="#1438B7" stroke-linejoin="round"/>
<path d="M371.091 146.919L510.016 216.684L522.611 127.389L371.091 146.919Z" fill="#1437B5" stroke="#1437B5" stroke-linejoin="round"/>
<path d="M510.016 216.684L369.211 286.658L537.65 297.729L510.016 216.684Z" fill="#153ABC" stroke="#153ABC" stroke-linejoin="round"/>
<path d="M500.804 79.4517L371.091 146.919L522.611 127.389L500.804 79.4517Z" fill="#1436AF" stroke="#1436AF" stroke-linejoin="round"/>
<path d="M651.384 320.705L814.371 373.551L770.569 318.512L651.384 320.705Z" fill="#173FCE" stroke="#173FCE" stroke-linejoin="round"/>
<path d="M770.569 318.512L814.371 373.551L908.742 300.026L770.569 318.512Z" fill="#1740D2" stroke="#1740D2" stroke-linejoin="round"/>
<path d="M908.742 300.026L1080.75 285.927L943.896 213.969L908.742 300.026Z" fill="#1741D7" stroke="#1941D7" stroke-linejoin="round"/>
<path d="M628.261 401.018L814.371 373.551L651.384 320.705L628.261 401.018Z" fill="#163FD0" stroke="#163FD0" stroke-linejoin="round"/>
<path d="M1059.13 221.906L1087.14 141.071L941.452 142.115L1059.13 221.906Z" fill="#173FCD" stroke="#173FCD" stroke-linejoin="round"/>
<path d="M506.068 -10.47L389.138 70.9921L500.804 79.4517L506.068 -10.47Z" fill="#1334AA" stroke="#1334AA" stroke-linejoin="round"/>
<path d="M500.804 79.4517L389.138 70.9922L371.091 146.919L500.804 79.4517Z" fill="#1334AA" stroke="#1334AA" stroke-linejoin="round"/>
<path d="M1087.14 141.07L1062.14 65.0391L941.452 142.115L1087.14 141.07Z" fill="#173ECB" stroke="#173ECB" stroke-linejoin="round"/>
<path d="M955.551 59.8173L954.235 -10.5744L783.353 50.4178L955.551 59.8173Z" fill="#1439BE" stroke="#1439BE" stroke-linejoin="round"/>
<path d="M369.211 286.658L524.679 367.702L537.65 297.729L369.211 286.658Z" fill="#153BC3" stroke="#153BC3" stroke-linejoin="round"/>
<path d="M537.65 297.729L524.679 367.702L651.384 320.705L537.65 297.729Z" fill="#163DC8" stroke="#163DC8" stroke-linejoin="round"/>
<path d="M670.559 7.91119L506.068 -10.47L634.653 70.3655L670.559 7.91119Z" fill="#1335AD" stroke="#1335AD" stroke-linejoin="round"/>
<path d="M680.334 -91.4099L506.068 -10.47L670.559 7.91125L680.334 -91.4099Z" fill="#1334AC" stroke="#1334AC" stroke-linejoin="round"/>
<path d="M375.227 215.222L369.212 286.658L510.016 216.684L375.227 215.222Z" fill="#1539BA" stroke="#1539BA" stroke-linejoin="round"/>
<path d="M219.76 222.01L369.211 286.658L375.227 215.222L219.76 222.01Z" fill="#1437B5" stroke="#1437B5" stroke-linejoin="round"/>
<path d="M1089.21 5.40472L954.235 -10.5744L955.551 59.8173L1089.21 5.40472Z" fill="#153BC1" stroke="#153BC1" stroke-linejoin="round"/>
<path d="M1079.62 363.003L1080.75 285.927L908.742 300.026L1079.62 363.003Z" fill="#1944DE" stroke="#1944DE" stroke-linejoin="round"/>
<path d="M1059.13 221.906L1193.92 141.906L1087.14 141.071L1059.13 221.906Z" fill="#173FCF" stroke="#173FCF" stroke-linejoin="round"/>
<path d="M524.679 367.702L628.261 401.018L651.384 320.705L524.679 367.702Z" fill="#153DC9" stroke="#153DC9" stroke-linejoin="round"/>
<path d="M814.371 373.551L933.744 384.621L908.741 300.026L814.371 373.551Z" fill="#1741D3" stroke="#1741D5" stroke-linejoin="round"/>
<path d="M800.46 460.026L933.744 384.621L814.371 373.551L800.46 460.026Z" fill="#1842D9" stroke="#1842D9" stroke-linejoin="round"/>
<path d="M778.653 -14.9608L680.334 -91.4099L670.559 7.91125L778.653 -14.9608Z" fill="#1336B1" stroke="#1336B1" stroke-linejoin="round"/>
<path d="M506.068 -10.4699L394.214 -15.483L389.138 70.9922L506.068 -10.4699Z" fill="#1333A5" stroke="#1333A5" stroke-linejoin="round"/>
<path d="M243.446 66.9191L217.692 141.279L371.091 146.919L243.446 66.9191Z" fill="#1333A7" stroke="#1333A7" stroke-linejoin="round"/>
<path d="M1217.42 234.334L1193.92 141.906L1059.13 221.906L1217.42 234.334Z" fill="#1842D7" stroke="#1842D7" stroke-linejoin="round"/>
<path d="M1087.14 141.071L1204.26 75.0653L1062.14 65.0392L1087.14 141.071Z" fill="#163ECD" stroke="#163ECD" stroke-linejoin="round"/>
<path d="M1062.14 65.0392L1089.21 5.40472L955.551 59.8173L1062.14 65.0392Z" fill="#163DC5" stroke="#163DC5" stroke-linejoin="round"/>
<path d="M1204.26 75.0653L1089.21 5.40472L1062.14 65.0392L1204.26 75.0653Z" fill="#173ECB" stroke="#173ECB" stroke-linejoin="round"/>
<path d="M933.744 384.621L1079.62 363.003L908.742 300.026L933.744 384.621Z" fill="#1843DC" stroke="#1843DC" stroke-linejoin="round"/>
<path d="M1080.75 285.927L1217.42 234.334L1059.13 221.906L1080.75 285.927Z" fill="#1842D7" stroke="#1842D7" stroke-linejoin="round"/>
<path d="M1208.96 317.676L1217.42 234.334L1080.75 285.927L1208.96 317.676Z" fill="#1844E0" stroke="#1844E0" stroke-linejoin="round"/>
<path d="M243.447 66.9191L371.091 146.919L389.138 70.9922L243.447 66.9191Z" fill="#1334A8" stroke="#1334A8" stroke-linejoin="round"/>
<path d="M371.091 146.919L219.76 222.01L375.227 215.222L371.091 146.919Z" fill="#1335AE" stroke="#1335AE" stroke-linejoin="round"/>
<path d="M217.692 141.279L219.76 222.01L371.091 146.919L217.692 141.279Z" fill="#1334AB" stroke="#1334AB" stroke-linejoin="round"/>
<path d="M369.212 286.658L349.661 372.82L524.679 367.702L369.212 286.658Z" fill="#153BC2" stroke="#153BC2" stroke-linejoin="round"/>
<path d="M202.465 322.376L349.661 372.82L369.212 286.658L202.465 322.376Z" fill="#1438B9" stroke="#1438B9" stroke-linejoin="round"/>
<path d="M475.426 459.191L657.023 462.637L628.261 401.018L475.426 459.191Z" fill="#1740D2" stroke="#1740D2" stroke-linejoin="round"/>
<path d="M1341.87 65.9791L1204.26 75.0653L1193.92 141.906L1341.87 65.9791Z" fill="#173FD0" stroke="#173FD0" stroke-linejoin="round"/>
<path d="M1193.92 141.906L1204.26 75.0653L1087.14 141.071L1193.92 141.906Z" fill="#173FCE" stroke="#173FCE" stroke-linejoin="round"/>
<path d="M394.214 -15.483L243.446 66.9191L389.138 70.9922L394.214 -15.483Z" fill="#1231A1" stroke="#1231A1" stroke-linejoin="round"/>
<path d="M394.214 -15.483L233.295 -8.48564L243.446 66.9191L394.214 -15.483Z" fill="#12309E" stroke="#12309E" stroke-linejoin="round"/>
<path d="M657.024 462.637L800.46 460.026L628.261 401.018L657.024 462.637Z" fill="#1741D6" stroke="#1741D6" stroke-linejoin="round"/>
<path d="M628.261 401.018L800.46 460.026L814.371 373.551L628.261 401.018Z" fill="#1842D7" stroke="#1842D7" stroke-linejoin="round"/>
<path d="M933.744 384.621L1057.63 445.718L1079.62 363.003L933.744 384.621Z" fill="#1945E1" stroke="#1945E1" stroke-linejoin="round"/>
<path d="M475.426 459.191L628.261 401.018L524.679 367.702L475.426 459.191Z" fill="#173ECB" stroke="#173ECB" stroke-linejoin="round"/>
<path d="M1040.33 -83.9948L954.235 -10.5744L1089.21 5.40466L1040.33 -83.9948Z" fill="#163CC4" stroke="#163CC4" stroke-linejoin="round"/>
<path d="M1079.62 363.003L1208.96 317.676L1080.75 285.927L1079.62 363.003Z" fill="#1944E0" stroke="#1944E0" stroke-linejoin="round"/>
<path d="M1233.78 -21.436L1040.33 -83.9948L1089.21 5.40466L1233.78 -21.436Z" fill="#153BC3" stroke="#153BC3" stroke-linejoin="round"/>
<path d="M349.661 372.82L475.426 459.191L524.679 367.702L349.661 372.82Z" fill="#163DC7" stroke="#163DC7" stroke-linejoin="round"/>
<path d="M800.46 460.026L909.117 477.781L933.744 384.621L800.46 460.026Z" fill="#1944DD" stroke="#1944DD" stroke-linejoin="round"/>
<path d="M1079.62 363.003L1220.05 364.36L1208.96 317.676L1079.62 363.003Z" fill="#1A47E7" stroke="#1A47E7" stroke-linejoin="round"/>
<path d="M219.76 222.01L202.465 322.376L369.212 286.658L219.76 222.01Z" fill="#1336B2" stroke="#1336B2" stroke-linejoin="round"/>
<path d="M349.661 372.82L395.718 466.083L475.426 459.191L349.661 372.82Z" fill="#163ECA" stroke="#163ECA" stroke-linejoin="round"/>
<path d="M77.8278 306.606L202.465 322.376L219.76 222.01L77.8278 306.606Z" fill="#1437B5" stroke="#1437B5" stroke-linejoin="round"/>
<path d="M202.465 322.376L255.854 375.953L349.661 372.82L202.465 322.376Z" fill="#153ABC" stroke="#153ABC" stroke-linejoin="round"/>
<path d="M63.3525 82.5849L74.0679 136.371L217.692 141.279L63.3525 82.5849Z" fill="#12309B" stroke="#12309B" stroke-linejoin="round"/>
<path d="M909.117 477.781L1057.63 445.718L933.744 384.621L909.117 477.781Z" fill="#1945E2" stroke="#1945E2" stroke-linejoin="round"/>
<path d="M1057.63 445.718L1220.05 364.36L1079.62 363.003L1057.63 445.718Z" fill="#1946E4" stroke="#1946E4" stroke-linejoin="round"/>
<path d="M1343.94 295.431L1335.85 215.013L1217.42 234.334L1343.94 295.431Z" fill="#1946E4" stroke="#1946E4" stroke-linejoin="round"/>
<path d="M255.854 375.953L395.718 466.083L349.661 372.82L255.854 375.953Z" fill="#153BC2" stroke="#153BC2" stroke-linejoin="round"/>
<path d="M1343.94 295.431L1217.42 234.334L1208.96 317.676L1343.94 295.431Z" fill="#1945E1" stroke="#1945E1" stroke-linejoin="round"/>
<path d="M1217.42 234.334L1335.85 215.013L1193.92 141.906L1217.42 234.334Z" fill="#1843DA" stroke="#1843DA" stroke-linejoin="round"/>
<path d="M1204.26 75.0653L1233.78 -21.436L1089.21 5.40472L1204.26 75.0653Z" fill="#163DC8" stroke="#163DC8" stroke-linejoin="round"/>
<path d="M1341.87 65.9791L1233.78 -21.436L1204.26 75.0653L1341.87 65.9791Z" fill="#163FCF" stroke="#163FCF" stroke-linejoin="round"/>
<path d="M1381.91 153.499L1341.87 65.9791L1193.92 141.906L1381.91 153.499Z" fill="#1842D8" stroke="#1842D8" stroke-linejoin="round"/>
<path d="M63.3524 82.5849L217.692 141.279L243.446 66.9191L63.3524 82.5849Z" fill="#1231A0" stroke="#1231A0" stroke-linejoin="round"/>
<path d="M217.692 141.279L67.1124 221.906L219.76 222.01L217.692 141.279Z" fill="#1233A7" stroke="#1233A7" stroke-linejoin="round"/>
<path d="M909.117 477.781L1045.22 524.882L1057.63 445.718L909.117 477.781Z" fill="#1947E7" stroke="#1947E7" stroke-linejoin="round"/>
<path d="M1331.34 367.807L1343.94 295.431L1208.96 317.676L1331.34 367.807Z" fill="#1A48EB" stroke="#1A48EB" stroke-linejoin="round"/>
<path d="M1335.85 215.013L1381.91 153.499L1193.92 141.906L1335.85 215.013Z" fill="#1842D8" stroke="#1842D8" stroke-linejoin="round"/>
<path d="M74.0679 136.371L67.1123 221.906L217.692 141.279L74.0679 136.371Z" fill="#1231A2" stroke="#1231A2" stroke-linejoin="round"/>
<path d="M202.465 322.376L107.342 366.24L255.854 375.953L202.465 322.376Z" fill="#1438B8" stroke="#1438B8" stroke-linejoin="round"/>
<path d="M1481.17 136.266L1381.91 153.499L1495.64 221.802L1481.17 136.266Z" fill="#1845E1" stroke="#1845E1" stroke-linejoin="round"/>
<path d="M1376.65 447.285L1331.34 367.807L1220.05 364.36L1376.65 447.285Z" fill="#1A4AF4" stroke="#1A4AF4" stroke-linejoin="round"/>
<path d="M1220.05 364.36L1331.34 367.807L1208.96 317.676L1220.05 364.36Z" fill="#1947E8" stroke="#1947E8" stroke-linejoin="round"/>
<path d="M66.5483 -0.130463L63.3524 82.585L243.446 66.9192L66.5483 -0.130463Z" fill="#112F99" stroke="#112F99" stroke-linejoin="round"/>
<path d="M74.0679 136.371L-24.4387 149.843L67.1122 221.906L74.0679 136.371Z" fill="#1231A0" stroke="#1231A0" stroke-linejoin="round"/>
<path d="M66.5483 -0.130554L243.446 66.9191L233.295 -8.48564L66.5483 -0.130554Z" fill="#112E99" stroke="#112E99" stroke-linejoin="round"/>
<path d="M67.1124 221.906L77.8278 306.606L219.76 222.01L67.1124 221.906Z" fill="#1436B2" stroke="#1436B2" stroke-linejoin="round"/>
<path d="M255.854 375.953L209.796 472.454L395.718 466.084L255.854 375.953Z" fill="#153BC2" stroke="#153BC2" stroke-linejoin="round"/>
<path d="M1187.72 468.277L1220.05 364.36L1057.63 445.718L1187.72 468.277Z" fill="#1A48EB" stroke="#1A48EB" stroke-linejoin="round"/>
<path d="M1495.64 221.802L1381.91 153.499L1335.85 215.013L1495.64 221.802Z" fill="#1945E3" stroke="#1945E3" stroke-linejoin="round"/>
<path d="M1045.22 524.882L1187.72 468.277L1057.63 445.718L1045.22 524.882Z" fill="#1A47E9" stroke="#1A47E9" stroke-linejoin="round"/>
<path d="M77.8277 306.606L107.342 366.24L202.465 322.376L77.8277 306.606Z" fill="#1437B6" stroke="#1437B6" stroke-linejoin="round"/>
<path d="M50.7572 -76.7886L66.5484 -0.130615L233.295 -8.48571L50.7572 -76.7886Z" fill="#213FAC" stroke="#213FAC" stroke-linejoin="round"/>
<path d="M107.342 366.24L209.796 472.454L255.854 375.953L107.342 366.24Z" fill="#1539BB" stroke="#1539BB" stroke-linejoin="round"/>
<path d="M1341.87 65.9791L1372.89 -28.6423L1233.78 -21.436L1341.87 65.9791Z" fill="#173FCD" stroke="#173FCD" stroke-linejoin="round"/>
<path d="M1461.24 65.7703L1372.89 -28.6423L1341.87 65.9791L1461.24 65.7703Z" fill="#1841D4" stroke="#1841D4" stroke-linejoin="round"/>
<path d="M-56.7728 75.4831L-24.4386 149.843L63.3525 82.5849L-56.7728 75.4831Z" fill="#112F98" stroke="#112F98" stroke-linejoin="round"/>
<path d="M63.3524 82.5849L-24.4387 149.843L74.0679 136.371L63.3524 82.5849Z" fill="#11309C" stroke="#11309C" stroke-linejoin="round"/>
<path d="M67.1123 221.906L-42.8616 284.047L77.8278 306.606L67.1123 221.906Z" fill="#1334AA" stroke="#1334AA" stroke-linejoin="round"/>
<path d="M77.8278 306.606L-25.7545 373.864L107.342 366.24L77.8278 306.606Z" fill="#1336B0" stroke="#1336B0" stroke-linejoin="round"/>
<path d="M1495.64 221.802L1335.85 215.013L1343.94 295.431L1495.64 221.802Z" fill="#1946E7" stroke="#1946E7" stroke-linejoin="round"/>
<path d="M1381.91 153.499L1461.24 65.7702L1341.87 65.979L1381.91 153.499Z" fill="#1843DA" stroke="#1843DA" stroke-linejoin="round"/>
<path d="M-24.4386 149.843L-38.7258 210.94L67.1123 221.906L-24.4386 149.843Z" fill="#12319F" stroke="#1233A6" stroke-linejoin="round"/>
<path d="M1481.17 136.266L1461.24 65.7702L1381.91 153.499L1481.17 136.266Z" fill="#1843DA" stroke="#1843DA" stroke-linejoin="round"/>
<path d="M1481.36 297.624L1495.64 221.802L1343.94 295.431L1481.36 297.624Z" fill="#1A48EE" stroke="#1A48EE" stroke-linejoin="round"/>
<path d="M-38.7258 210.94L-42.8616 284.047L67.1123 221.906L-38.7258 210.94Z" fill="#1233A5" stroke="#1233A5" stroke-linejoin="round"/>
<path d="M107.342 366.24L88.7311 456.789L209.796 472.454L107.342 366.24Z" fill="#1439BB" stroke="#1439BB" stroke-linejoin="round"/>
<path d="M1331.34 367.807L1481.36 297.624L1343.94 295.431L1331.34 367.807Z" fill="#1A48EB" stroke="#1A48EB" stroke-linejoin="round"/>
<path d="M1465.57 389.739L1481.36 297.624L1331.34 367.807L1465.57 389.739Z" fill="#1A49F1" stroke="#1A49F1" stroke-linejoin="round"/>
<path d="M66.5483 -0.130463L-56.7729 75.4831L63.3525 82.585L66.5483 -0.130463Z" fill="#112E95" stroke="#112E95" stroke-linejoin="round"/>
<path d="M-50.7572 -5.77022L-56.7729 75.483L66.5483 -0.130539L-50.7572 -5.77022Z" fill="#102C91" stroke="#102C91" stroke-linejoin="round"/>
<path d="M1187.72 468.277L1376.65 447.285L1220.05 364.36L1187.72 468.277Z" fill="#1A49EF" stroke="#1A49EF" stroke-linejoin="round"/>
<path d="M-25.7545 373.864L88.7311 456.788L107.342 366.24L-25.7545 373.864Z" fill="#1438B5" stroke="#1438B5" stroke-linejoin="round"/>
<path d="M1199.94 532.298L1376.65 447.285L1187.72 468.277L1199.94 532.298Z" fill="#1B4BF6" stroke="#1B4BF6" stroke-linejoin="round"/>
<path d="M-42.8616 284.047L-25.7546 373.864L77.8278 306.606L-42.8616 284.047Z" fill="#1435AE" stroke="#1435AE" stroke-linejoin="round"/>
<path d="M1461.24 65.7703L1481.36 -18.3028L1372.89 -28.6423L1461.24 65.7703Z" fill="#1740D3" stroke="#1740D3" stroke-linejoin="round"/>
<path d="M1376.65 447.285L1465.57 389.739L1331.34 367.807L1376.65 447.285Z" fill="#1A4AF3" stroke="#1A4AF3" stroke-linejoin="round"/>
<path d="M50.7572 -76.7886L-50.7572 -5.7703L66.5483 -0.130615L50.7572 -76.7886Z" fill="#213FAC" stroke="#213FAC" stroke-linejoin="round"/>
<path d="M1376.65 447.285L1477.03 458.982L1465.57 389.739L1376.65 447.285Z" fill="#1B4CF9" stroke="#1B4CF9" stroke-linejoin="round"/>
<path d="M1373.83 553.708L1477.03 458.982L1376.65 447.285L1373.83 553.708Z" fill="#1B4CF9" stroke="#1B4CF9" stroke-linejoin="round"/>
<path d="M-25.7546 373.864L-52.2611 449.06L88.7311 456.788L-25.7546 373.864Z" fill="#1438B7" stroke="#1438B7" stroke-linejoin="round"/>
<path d="M1199.94 532.298L1373.83 553.708L1376.65 447.285L1199.94 532.298Z" fill="#1B4BF7" stroke="#1B4BF7" stroke-linejoin="round"/>
<path d="M-52.2611 449.06L-49.0652 535.535L88.7311 456.789L-52.2611 449.06Z" fill="#8B98E6" stroke="#8B98E6" stroke-linejoin="round"/>
</g>
<defs>
<clipPath id="clip0_1545_2998">
<rect width="1440" height="450" fill="white" transform="matrix(-1 0 0 -1 1440 450)"/>
</clipPath>
</defs>
</svg>
